HIERARCHY
ROOT Hips
{
	OFFSET 0.000000 0.000000 0.000000 
	CHANNELS 6 Xposition Yposition Zposition Yrotation Zrotation Xrotation 
	JOINT Lumbar
	{
		OFFSET 0.000000 0.000000 0.000000 
		CHANNELS 3 Zrotation Xrotation Yrotation
		JOINT Neck
		{
			OFFSET 0.000000 0.445665 0.000000 
			CHANNELS 3 Zrotation Xrotation Yrotation
			End Site
			{
				OFFSET 0.000000 0.227535 0.000000 
			}
		}
		JOINT RightShoulder
		{
			OFFSET 0.019635 0.377685 0.194865 
			CHANNELS 3 Zrotation Xrotation Yrotation
			JOINT RightElbow
			{
				OFFSET 0.000000 -0.243375 0.000000 
				CHANNELS 2 Zrotation Yrotation
				JOINT RightWrist
				{
					OFFSET 0.000000 -0.264825 0.000000 
					CHANNELS 2 Zrotation Xrotation
					End Site
					{
						OFFSET 0.006600 -0.176220 0.000990 
					}
				}
			}
		}
		JOINT LeftShoulder
		{
			OFFSET 0.019635 0.377685 -0.194865 
			CHANNELS 3 Zrotation Xrotation Yrotation
			JOINT LeftElbow
			{
				OFFSET 0.000000 -0.243375 0.000000 
				CHANNELS 2 Zrotation Yrotation
				JOINT LeftWrist
				{
					OFFSET 0.000000 -0.264825 0.000000 
					CHANNELS 2 Zrotation Xrotation
					End Site
					{
						OFFSET 0.006600 -0.176220 -0.000990 
					}
				}
			}
		}
	}
	JOINT RightHip
	{
		OFFSET 0.052140 -0.069960 0.075570 
		CHANNELS 3 Zrotation Xrotation Yrotation
		JOINT RightKnee
		{
			OFFSET 0.000000 -0.402270 0.000000 
			CHANNELS 1 Zrotation
			JOINT RightAnkle
			{
				OFFSET 0.000000 -0.404085 0.000000 
				CHANNELS 3 Zrotation Xrotation Yrotation
				End Site
				{
					OFFSET 0.204105 -0.089430 0.008415 
				}
			}
		}
	}
	JOINT LeftHip
	{
		OFFSET 0.052140 -0.069960 -0.075570 
		CHANNELS 3 Zrotation Xrotation Yrotation
		JOINT LeftKnee
		{
			OFFSET 0.000000 -0.402270 0.000000 
			CHANNELS 1 Zrotation
			JOINT LeftAnkle
			{
				OFFSET 0.000000 -0.404085 0.000000 
				CHANNELS 3 Zrotation Xrotation Yrotation
				End Site
				{
					OFFSET 0.204105 -0.089430 -0.008415 
				}
			}
		}
	}
}
MOTION
Frames: 19
Frame Time: 0.02
-0.00243 6e-05 -0.00189 29.94504 -20.85979 -3.46858 43.6852 0.33196 -8.55107 -8.19063 3.03083 -1.20924 -19.23438 -5.70259 -11.18299 29.43501 94.53967 7.77171 1.74456 -25.78927 9.27903 17.55081 27.51256 -104.18881 12.0788 -2.7753 32.61436 -2.48399 -3.35365 -19.90296 -6.35376 -3.15365 -3.74141 37.30603 1.48994 -1.3147 -24.05143 -6.51126 2.25234 3.37432
-0.00229 0.00012 -0.00232 30.28443 -20.87023 -3.51523 43.733 0.35659 -8.40724 -8.16587 3.12053 -1.21012 -19.43833 -5.89971 -11.37893 29.20916 94.66688 7.84313 1.73058 -25.72321 8.99924 16.60285 28.07473 -104.19783 12.44484 -2.68933 32.5358 -2.56159 -3.80128 -19.91054 -6.34063 -3.13532 -3.73215 37.2987 1.6003 -0.77639 -24.04589 -6.52134 2.18917 3.33599
-0.00214 0.00018 -0.00275 30.62288 -20.88061 -3.56176 43.78067 0.38108 -8.26363 -8.14128 3.21002 -1.211 -19.64191 -6.09626 -11.57417 28.98415 94.79396 7.91445 1.71672 -25.65738 8.72029 15.65736 28.63569 -104.20665 12.80979 -2.60364 32.45739 -2.63898 -4.24809 -19.9181 -6.32753 -3.11699 -3.7229 37.29134 1.71044 -0.2395 -24.04037 -6.53138 2.12615 3.29776
-0.002 0.00024 -0.00318 30.96124 -20.89102 -3.60827 43.82832 0.40563 -8.12019 -8.11659 3.29946 -1.21189 -19.84526 -6.29279 -11.76945 28.75897 94.92047 7.98557 1.70274 -25.59153 8.44135 14.71224 29.19627 -104.21559 13.17472 -2.51793 32.37906 -2.71637 -4.6945 -19.92566 -6.31444 -3.0987 -3.71366 37.28403 1.82047 0.29718 -24.03484 -6.54142 2.06317 3.25954
-0.00186 0.00029 -0.00361 31.30047 -20.90148 -3.65488 43.8761 0.43032 -7.97667 -8.09176 3.38906 -1.21277 -20.04891 -6.48981 -11.9656 28.53305 95.04797 8.05703 1.68875 -25.52543 8.1616 13.76485 29.7577 -104.22488 13.54072 -2.43198 32.30059 -2.7939 -5.14134 -19.93325 -6.30134 -3.08043 -3.70443 37.27675 1.93068 0.83523 -24.02929 -6.55148 2.00008 3.22123
-0.00171 0.00035 -0.00404 31.63724 -20.91168 -3.70124 43.92356 0.4544 -7.83289 -8.06771 3.4783 -1.21365 -20.25234 -6.68532 -12.15897 28.31003 95.1747 8.12818 1.67526 -25.46015 7.88439 12.82339 30.31755 -104.23277 13.90344 -2.34683 32.2223 -2.87098 -5.58793 -19.94076 -6.28822 -3.06199 -3.69513 37.2692 2.04069 1.36966 -24.02384 -6.56147 1.93721 3.18316
-0.00157 0.00041 -0.00448 31.97862 -20.92243 -3.74807 43.97156 0.47971 -7.68968 -8.04197 3.56824 -1.21453 -20.45588 -6.88381 -12.35739 28.08107 95.30033 8.19916 1.6604 -25.39335 7.60229 11.87103 30.88036 -104.24323 14.27237 -2.26013 32.14378 -2.949 -6.03505 -19.9484 -6.27515 -3.04387 -3.68597 37.26226 2.15093 1.91066 -24.01818 -6.57161 1.87396 3.14465
-0.00143 0.00047 -0.0049 32.31572 -20.93262 -3.79443 44.01917 0.50381 -7.54613 -8.01804 3.6574 -1.21541 -20.65952 -7.07925 -12.55175 27.8582 95.43154 8.27162 1.6475 -25.32783 7.32487 10.92872 31.43973 -104.25176 14.63556 -2.17491 32.06539 -3.02595 -6.4807 -19.95594 -6.26206 -3.02556 -3.67672 37.25466 2.26105 2.44582 -24.01273 -6.5816 1.81106 3.10655
-0.00127 0.00053 -0.00531 32.64787 -20.94232 -3.84037 44.06588 0.52677 -7.40134 -7.99535 3.74618 -1.21632 -20.86265 -7.27227 -12.73884 27.64028 95.55156 8.34066 1.6342 -25.26432 7.05236 9.99826 31.99802 -104.25615 14.99197 -2.09126 31.98745 -3.10243 -6.92876 -19.9633 -6.24884 -3.0066 -3.66717 37.24666 2.37073 2.97326 -24.00747 -6.59144 1.74854 3.06892
-0.00118 0.00058 -0.00582 33.00934 -20.95543 -3.8892 44.11653 0.5573 -7.26118 -7.96261 3.83888 -1.21712 -21.06682 -7.48313 -12.96083 27.38639 95.68182 8.41366 1.61479 -25.19061 6.74915 8.99827 32.57195 -104.279 15.38807 -1.99786 31.90776 -3.18412 -7.37561 -19.97152 -6.23604 -2.99011 -3.65876 37.24218 2.48207 3.54338 -24.00093 -6.60227 1.68369 3.0285
-0.00095 0.00065 -0.00612 33.30836 -20.96097 -3.93164 44.15965 0.57119 -7.11292 -7.9529 3.92218 -1.21813 -21.26993 -7.65387 -13.11362 27.21316 95.82501 8.48832 1.61368 -25.13755 6.5123 8.14596 33.10678 -104.26634 15.69996 -1.92547 31.83126 -3.25321 -7.81686 -19.97803 -6.22257 -2.9692 -3.64834 37.22948 2.59042 4.02448 -23.99721 -6.61089 1.62387 2.994
-0.00039 0.00077 -0.0059 33.43903 -20.94815 -3.95869 44.17569 0.54434 -6.92824 -7.99295 3.98865 -1.21971 -21.46123 -7.73514 -13.03434 27.22311 95.70089 8.48015 1.61572 -25.14966 6.44593 7.69569 33.58466 -104.13317 15.78549 -1.90872 31.76721 -3.30099 -8.31188 -19.97887 -6.20552 -2.92933 -3.62903 37.19987 2.68641 4.25022 -24.00033 -6.61432 1.57701 2.97587
0.00031 0.0009 -0.00547 33.50616 -20.92703 -3.97889 44.18553 0.49984 -6.73806 -8.05924 4.04401 -1.22148 -21.65324 -7.77322 -12.89069 27.32027 95.63199 8.48606 1.64255 -25.18155 6.44809 7.39531 34.01466 -103.97281 15.78762 -1.91406 31.70527 -3.3338 -8.78999 -19.97814 -6.18808 -2.88615 -3.60825 37.16054 2.78019 4.38825 -24.00642 -6.61536 1.5354 2.9637
0.00097 0.00103 -0.00512 33.60073 -20.90843 -4.00081 44.20215 0.46019 -6.55963 -8.1215 4.09861 -1.22316 -21.85054 -7.81645 -12.80749 27.40353 95.75334 8.54741 1.69176 -25.19804 6.42682 7.02709 34.43282 -103.83458 15.82222 -1.90979 31.64047 -3.3646 -9.22878 -19.97879 -6.17205 -2.84908 -3.5904 37.12251 2.87769 4.57409 -24.01178 -6.61691 1.49187 2.94873
0.00151 0.00117 -0.00482 33.70237 -20.89609 -4.02866 44.20128 0.43396 -6.34206 -8.14794 4.17772 -1.22486 -22.02361 -7.91697 -12.60359 27.38187 95.02294 8.36327 1.60854 -25.23907 6.3742 6.65372 34.98985 -103.63772 15.87119 -1.90119 31.58536 -3.43199 -9.85975 -19.97672 -6.15105 -2.79305 -3.56324 37.09935 2.96367 4.72767 -24.01467 -6.6209 1.44621 2.93406
0.00235 0.00129 -0.00437 33.7728 -20.86752 -4.04247 44.23629 0.37551 -6.2048 -8.25841 4.20314 -1.22656 -22.24799 -7.89265 -12.62189 27.59497 96.00791 8.67431 1.79506 -25.23686 6.40178 6.33195 35.24989 -103.57823 15.88101 -1.91005 31.5085 -3.42037 -10.09425 -19.97982 -6.14 -2.7751 -3.55482 37.04075 3.07317 4.92582 -24.02323 -6.61923 1.40648 2.92032
0.00385 0.00135 -0.00353 33.78439 -20.80683 -4.01988 44.36401 0.23333 -6.28967 -8.56639 4.08325 -1.22819 -22.60713 -7.49211 -13.39512 28.47076 102.34378 10.51884 2.82525 -25.08334 6.64546 6.06973 34.67094 -103.70516 15.70721 -1.93206 31.38887 -3.18783 -9.17137 -19.99859 -6.15906 -2.86825 -3.60116 36.90547 3.24773 5.28379 -24.04878 -6.60269 1.3798 2.90648
0.00568 0.0014 -0.00253 33.76427 -20.72824 -3.98332 44.52939 0.05932 -6.45548 -8.96293 3.90979 -1.22981 -23.01838 -6.97412 -14.37496 29.57164 110.29528 12.83136 4.108 -24.89078 6.96545 5.86268 33.8008 -103.99859 15.51079 -1.97491 31.24416 -2.87749 -7.86286 -20.02245 -6.18763 -2.99876 -3.66587 36.73166 3.44613 5.68629 -24.07987 -6.58053 1.35936 2.89365
0.00745 0.00146 -0.00161 33.75135 -20.65066 -3.95266 44.68287 -0.10088 -6.58525 -9.33773 3.76062 -1.23144 -23.41123 -6.53901 -15.1725 30.54783 117.08467 14.81608 5.20436 -24.73372 7.24287 5.66092 33.08364 -104.35928 15.39276 -2.02958 31.09896 -2.60702 -6.77426 -20.04332 -6.2102 -3.10893 -3.72051 36.56272 3.63386 6.05911 -24.10666 -6.56084 1.33727 2.88112
